HIERARCHY
ROOT reference
{
  OFFSET -65.3212 -1.93545 -120.338
  CHANNELS 6 Xposition Yposition Zposition Zrotation Xrotation Yrotation
  JOINT Hips
  {
    OFFSET 0 78.7191 0
    CHANNELS 6 Xposition Yposition Zposition Zrotation Xrotation Yrotation
    JOINT Chest
    {
      OFFSET 0 8.7983 -4.7612
      CHANNELS 6 Xposition Yposition Zposition Zrotation Xrotation Yrotation
      JOINT Chest2
      {
        OFFSET 0 8.0291 0.4195
        CHANNELS 6 Xposition Yposition Zposition Zrotation Xrotation Yrotation
        JOINT Chest3
        {
          OFFSET 0 9.9351 -2.2114
          CHANNELS 6 Xposition Yposition Zposition Zrotation Xrotation Yrotation
          JOINT Neck
          {
            OFFSET 0 22.3885 -0.4656
            CHANNELS 6 Xposition Yposition Zposition Zrotation Xrotation Yrotation
            JOINT Head
            {
              OFFSET -0.0001 12.643 3.4389
              CHANNELS 6 Xposition Yposition Zposition Zrotation Xrotation Yrotation
              End Site
              {
                OFFSET 0.0001 17.6655 0.5274
              }
            }
          }
          JOINT LeftCollar
          {
            OFFSET 2.2603 21.606 7.4023
            CHANNELS 6 Xposition Yposition Zposition Zrotation Xrotation Yrotation
            JOINT LeftShoulder
            {
              OFFSET 13.5163 -1.1332 -5.0146
              CHANNELS 6 Xposition Yposition Zposition Zrotation Xrotation Yrotation
              JOINT LeftElbow
              {
                OFFSET -0.0995 -28.05 -0.2431
                CHANNELS 6 Xposition Yposition Zposition Zrotation Xrotation Yrotation
                JOINT LeftWrist
                {
                  OFFSET 0.0679 -23.3996 -0.1402
                  CHANNELS 6 Xposition Yposition Zposition Zrotation Xrotation Yrotation
                  JOINT LeftFinger1
                  {
                    OFFSET 0.7932 -9.069 2.5189
                    CHANNELS 6 Xposition Yposition Zposition Zrotation Xrotation Yrotation
                    JOINT LeftFinger11
                    {
                      OFFSET -0.8272 -3.3923 0.5977
                      CHANNELS 6 Xposition Yposition Zposition Zrotation Xrotation Yrotation
                      JOINT LeftFinger12
                      {
                        OFFSET -0.5649 -2.3158 0.4082
                        CHANNELS 6 Xposition Yposition Zposition Zrotation Xrotation Yrotation
                        End Site
                        {
                          OFFSET -0.4919 -1.6479 0.2673
                        }
                      }
                    }
                  }
                  JOINT LeftFinger2
                  {
                    OFFSET 0.9159 -9.2044 0.2193
                    CHANNELS 6 Xposition Yposition Zposition Zrotation Xrotation Yrotation
                    JOINT LeftFinger21
                    {
                      OFFSET 0.0117 -4.1944 -0.0248
                      CHANNELS 6 Xposition Yposition Zposition Zrotation Xrotation Yrotation
                      JOINT LeftFinger22
                      {
                        OFFSET 0.0071 -2.3249 -0.0142
                        CHANNELS 6 Xposition Yposition Zposition Zrotation Xrotation Yrotation
                        End Site
                        {
                          OFFSET -0.1475 -2.0882 0.0028
                        }
                      }
                    }
                  }
                  JOINT LeftFinger3
                  {
                    OFFSET 0.6113 -8.7231 -2.0637
                    CHANNELS 6 Xposition Yposition Zposition Zrotation Xrotation Yrotation
                    JOINT LeftFinger31
                    {
                      OFFSET -0.1927 -3.8059 -0.2383
                      CHANNELS 6 Xposition Yposition Zposition Zrotation Xrotation Yrotation
                      JOINT LeftFinger32
                      {
                        OFFSET -0.1091 -2.1688 -0.1362
                        CHANNELS 6 Xposition Yposition Zposition Zrotation Xrotation Yrotation
                        End Site
                        {
                          OFFSET -0.2358 -1.9176 -0.0906
                        }
                      }
                    }
                  }
                  JOINT LeftFinger4
                  {
                    OFFSET -0.6151 -8.0947 -3.5641
                    CHANNELS 6 Xposition Yposition Zposition Zrotation Xrotation Yrotation
                    JOINT LeftFinger41
                    {
                      OFFSET -0.4882 -2.341 -0.6462
                      CHANNELS 6 Xposition Yposition Zposition Zrotation Xrotation Yrotation
                      JOINT LeftFinger42
                      {
                        OFFSET -0.3575 -1.7167 -0.4742
                        CHANNELS 6 Xposition Yposition Zposition Zrotation Xrotation Yrotation
                        End Site
                        {
                          OFFSET -0.4187 -1.5237 -0.3496
                        }
                      }
                    }
                  }
                  JOINT LeftFinger0
                  {
                    OFFSET -1.42 -1.8761 1.4223
                    CHANNELS 6 Xposition Yposition Zposition Zrotation Xrotation Yrotation
                    JOINT LeftFinger01
                    {
                      OFFSET -1.1471 -3.4929 2.6334
                      CHANNELS 6 Xposition Yposition Zposition Zrotation Xrotation Yrotation
                      JOINT LeftFinger02
                      {
                        OFFSET -0.823 -2.3 1.6571
                        CHANNELS 6 Xposition Yposition Zposition Zrotation Xrotation Yrotation
                        End Site
                        {
                          OFFSET -0.5822 -1.6914 1.1582
                        }
                      }
                    }
                  }
                }
              }
            }
          }
          JOINT RightCollar
          {
            OFFSET -2.2603 21.606 7.4023
            CHANNELS 6 Xposition Yposition Zposition Zrotation Xrotation Yrotation
            JOINT RightShoulder
            {
              OFFSET -13.5187 -1.1334 -5.0155
              CHANNELS 6 Xposition Yposition Zposition Zrotation Xrotation Yrotation
              JOINT RightElbow
              {
                OFFSET 0.0994 -28.0499 -0.2431
                CHANNELS 6 Xposition Yposition Zposition Zrotation Xrotation Yrotation
                JOINT RightWrist
                {
                  OFFSET -0.0679 -23.3996 -0.1402
                  CHANNELS 6 Xposition Yposition Zposition Zrotation Xrotation Yrotation
                  JOINT RightFinger1
                  {
                    OFFSET -0.7932 -9.0691 2.5189
                    CHANNELS 6 Xposition Yposition Zposition Zrotation Xrotation Yrotation
                    JOINT RightFinger11
                    {
                      OFFSET 0.8272 -3.3923 0.5977
                      CHANNELS 6 Xposition Yposition Zposition Zrotation Xrotation Yrotation
                      JOINT RightFinger12
                      {
                        OFFSET 0.565 -2.3158 0.4082
                        CHANNELS 6 Xposition Yposition Zposition Zrotation Xrotation Yrotation
                        End Site
                        {
                          OFFSET 0.4919 -1.6479 0.2673
                        }
                      }
                    }
                  }
                  JOINT RightFinger2
                  {
                    OFFSET -0.916 -9.2044 0.2193
                    CHANNELS 6 Xposition Yposition Zposition Zrotation Xrotation Yrotation
                    JOINT RightFinger21
                    {
                      OFFSET -0.0117 -4.1944 -0.0248
                      CHANNELS 6 Xposition Yposition Zposition Zrotation Xrotation Yrotation
                      JOINT RightFinger22
                      {
                        OFFSET -0.0071 -2.3249 -0.0142
                        CHANNELS 6 Xposition Yposition Zposition Zrotation Xrotation Yrotation
                        End Site
                        {
                          OFFSET 0.1475 -2.0882 0.0028
                        }
                      }
                    }
                  }
                  JOINT RightFinger3
                  {
                    OFFSET -0.6113 -8.7231 -2.0637
                    CHANNELS 6 Xposition Yposition Zposition Zrotation Xrotation Yrotation
                    JOINT RightFinger31
                    {
                      OFFSET 0.1927 -3.8059 -0.2383
                      CHANNELS 6 Xposition Yposition Zposition Zrotation Xrotation Yrotation
                      JOINT RightFinger32
                      {
                        OFFSET 0.1091 -2.1688 -0.1362
                        CHANNELS 6 Xposition Yposition Zposition Zrotation Xrotation Yrotation
                        End Site
                        {
                          OFFSET 0.2358 -1.9176 -0.0906
                        }
                      }
                    }
                  }
                  JOINT RightFinger4
                  {
                    OFFSET 0.6151 -8.0947 -3.564
                    CHANNELS 6 Xposition Yposition Zposition Zrotation Xrotation Yrotation
                    JOINT RightFinger41
                    {
                      OFFSET 0.4882 -2.341 -0.6462
                      CHANNELS 6 Xposition Yposition Zposition Zrotation Xrotation Yrotation
                      JOINT RightFinger42
                      {
                        OFFSET 0.3574 -1.7166 -0.4742
                        CHANNELS 6 Xposition Yposition Zposition Zrotation Xrotation Yrotation
                        End Site
                        {
                          OFFSET 0.4187 -1.5237 -0.3496
                        }
                      }
                    }
                  }
                  JOINT RightFinger0
                  {
                    OFFSET 1.4199 -1.8761 1.4221
                    CHANNELS 6 Xposition Yposition Zposition Zrotation Xrotation Yrotation
                    JOINT RightFinger01
                    {
                      OFFSET 1.1472 -3.4929 2.6336
                      CHANNELS 6 Xposition Yposition Zposition Zrotation Xrotation Yrotation
                      JOINT RightFinger02
                      {
                        OFFSET 0.8229 -2.3 1.6571
                        CHANNELS 6 Xposition Yposition Zposition Zrotation Xrotation Yrotation
                        End Site
                        {
                          OFFSET 0.5822 -1.6914 1.1582
                        }
                      }
                    }
                  }
                }
              }
            }
          }
        }
      }
    }
    JOINT RightHip
    {
      OFFSET -9.412 3.9771 -0.7758
      CHANNELS 6 Xposition Yposition Zposition Zrotation Xrotation Yrotation
      JOINT RightKnee
      {
        OFFSET -0.7531 -40.938 0
        CHANNELS 6 Xposition Yposition Zposition Zrotation Xrotation Yrotation
        JOINT RightAnkle
        {
          OFFSET 0 -40.1986 0
          CHANNELS 6 Xposition Yposition Zposition Zrotation Xrotation Yrotation
          JOINT RightToe
          {
            OFFSET 0 -4.4182 9.239
            CHANNELS 6 Xposition Yposition Zposition Zrotation Xrotation Yrotation
            End Site
            {
              OFFSET 0 0 6.1981
            }
          }
        }
      }
    }
    JOINT LeftHip
    {
      OFFSET 9.4119 3.9773 -0.7758
      CHANNELS 6 Xposition Yposition Zposition Zrotation Xrotation Yrotation
      JOINT LeftKnee
      {
        OFFSET 0.7532 -40.9383 0
        CHANNELS 6 Xposition Yposition Zposition Zrotation Xrotation Yrotation
        JOINT LeftAnkle
        {
          OFFSET 0 -40.1986 0
          CHANNELS 6 Xposition Yposition Zposition Zrotation Xrotation Yrotation
          JOINT LeftToe
          {
            OFFSET 0 -4.4182 9.239
            CHANNELS 6 Xposition Yposition Zposition Zrotation Xrotation Yrotation
            End Site
            {
              OFFSET 0 0 6.1981
            }
          }
        }
      }
    }
  }
}
MOTION
Frames:	4
Frame Time:	0.0333333
-26.4795 -66.082 85.2951 0 0 -0 3.55271e-015 78.7191 0 10.1807 -64.7109 21.1565 0 8.7983 -4.7612 -0.117317 -7.04082 0.342209 0 8.0291 0.4195 -0.194109 -14.0822 0.67753 0 9.9351 -2.2114 -0.194113 -14.0822 0.67753 -7.10543e-015 22.3885 -0.4656 0.374511 -0.655473 -5.68349 -0.0001 12.643 3.4389 17.7696 4.87546 -1.56821 2.2603 21.606 7.4023 5.16433 -1.47308 -27.8654 13.5163 -1.1332 -5.0146 45.2158 -52.2703 28.179 -0.0995 -28.05 -0.2431 65.7448 -77.3482 94.8586 0.0679 -23.3996 -0.1402 -26.4609 -19.3413 -24.4678 0.7932 -9.069 2.5189 -3.03459 13.5333 -2.18217 -0.8272 -3.3923 0.5977 -35.3168 20.4567 4.6682 -0.5649 -2.3158 0.4082 -36.389 20.969 4.99625 0.9159 -9.2044 0.2193 -1.00372 1.77403 1.17349 0.0117 -4.1944 -0.0248 -42.7844 24.7471 5.54521 0.0071 -2.3249 -0.0142 -8.91267 5.6297 -0.441566 0.6113 -8.7231 -2.0637 -6.58205 6.72803 5.06496 -0.1927 -3.8059 -0.2383 -13.8829 9.68224 -0.672512 -0.1091 -2.1688 -0.1362 -15.268 10.6417 -0.61039 -0.6151 -8.0947 -3.5641 13.8074 -0.976166 8.79332 -0.4882 -2.341 -0.6462 -17.7368 12.2751 -1.06105 -0.3575 -1.7167 -0.4742 -8.7507 6.03021 -1.0008 -1.42 -1.8761 1.4223 -11.5753 -16.7455 -49.4477 -1.1471 -3.4929 2.6334 -4.53226 0.274127 0.312997 -0.823 -2.3 1.6571 8.53298 10.6973 -3.07921 -2.2603 21.606 7.4023 -21.9602 0.114091 4.53246 -13.5187 -1.1334 -5.0155 -58.9198 -73.2696 -38.9991 0.0994 -28.0499 -0.2431 11.9867 -49.9107 4.64874 -0.0679 -23.3996 -0.1402 4.07523 -37.7941 -5.95577 -0.7932 -9.0691 2.5189 20.8132 17.2476 -1.6445 0.8272 -3.3923 0.5977 39.2536 11.9924 -4.93879 0.565 -2.3158 0.4082 40.0954 12.1952 -5.12854 -0.916 -9.2044 0.2193 5.73487 3.01957 -1.23923 -0.0117 -4.1944 -0.0248 51.4242 15.4173 -6.16796 -0.0071 -2.3249 -0.0142 14.4547 4.9006 -0.27618 -0.6113 -8.7231 -2.0637 12.0241 6.76835 -5.4947 0.1927 -3.8059 -0.2383 20.2298 7.81099 -0.242884 0.1091 -2.1688 -0.1362 21.8124 8.40432 -0.378104 0.6151 -8.0947 -3.564 -13.6358 2.82535 -6.86715 0.4882 -2.341 -0.6462 21.0316 7.98084 0.327152 0.3574 -1.7166 -0.4742 10.7771 4.08722 0.530843 1.4199 -1.8761 1.4221 14.9862 -7.14843 53.2651 1.1472 -3.4929 2.6336 1.89441 -0.271234 -1.98343 0.8229 -2.3 1.6571 -14.8775 25.9548 12.1768 -9.412 3.9771 -0.7758 -29.6195 -9.83891 -8.03411 -0.7531 -40.938 3.55271e-015 0.570424 -0.00243259 4.33019 -7.10543e-015 -40.1986 -3.55271e-015 15.0928 13.6118 -0.952873 7.10543e-015 -4.4182 9.239 1.37641 9.20252 -0.64032 9.4119 3.9773 -0.7758 40.0765 -33.7663 17.0627 0.7532 -40.9383 -1.77636e-015 0.0358459 24.5224 -1.65791 1.42109e-014 -40.1986 0 -13.0253 9.99266 -15.42 1.42109e-014 -4.4182 9.239 0.20434 -1.5266 0.00263463 
-26.5073 -65.9752 85.3373 0 0 -0 3.55271e-015 78.7191 0 9.79383 -65.1717 20.7762 0 8.7983 -4.7612 -0.0304375 -7.0855 0.362002 0 8.0291 0.4195 -0.0155267 -14.1711 0.728637 0 9.9351 -2.2114 -0.0155277 -14.1711 0.728641 0 22.3885 -0.4656 0.700809 -0.313853 -5.29372 -0.0001 12.643 3.4389 18.2697 5.34023 -1.31838 2.2603 21.606 7.4023 5.23948 -1.47575 -27.9188 13.5163 -1.1332 -5.0146 45.4631 -52.1573 28.2515 -0.0995 -28.05 -0.2431 65.5946 -77.5206 94.7362 0.0679 -23.3996 -0.1402 -25.9705 -19.6954 -25.133 0.7932 -9.069 2.5189 -2.80555 13.0534 -2.10124 -0.8272 -3.3923 0.5977 -34.4467 20.0346 4.40896 -0.5649 -2.3158 0.4082 -35.4692 20.5302 4.71431 0.9159 -9.2044 0.2193 -0.758594 1.60133 1.17884 0.0117 -4.1944 -0.0248 -41.7216 24.2618 5.19469 0.0071 -2.3249 -0.0142 -8.53344 5.38944 -0.440657 0.6113 -8.7231 -2.0637 -6.24641 6.46249 4.98882 -0.1927 -3.8059 -0.2383 -13.4241 9.3634 -0.688052 -0.1091 -2.1688 -0.1362 -14.7841 10.3071 -0.634905 -0.6151 -8.0947 -3.5641 13.9138 -0.963672 8.62211 -0.4882 -2.341 -0.6462 -17.2099 11.9128 -1.0849 -0.3575 -1.7167 -0.4742 -8.38251 5.77347 -0.977207 -1.42 -1.8761 1.4223 -11.4481 -16.8857 -48.5826 -1.1471 -3.4929 2.6334 -4.45992 0.256414 0.316621 -0.823 -2.3 1.6571 8.30068 10.4255 -2.97765 -2.2603 21.606 7.4023 -21.9132 0.0795318 4.79259 -13.5187 -1.1334 -5.0155 -58.1021 -73.3673 -38.2753 0.0994 -28.0499 -0.2431 11.3629 -48.6258 4.8672 -0.0679 -23.3996 -0.1402 4.07928 -38.5562 -6.46319 -0.7932 -9.0691 2.5189 20.8132 17.2476 -1.64451 0.8272 -3.3923 0.5977 39.2536 11.9924 -4.93881 0.565 -2.3158 0.4082 40.0954 12.1952 -5.12851 -0.916 -9.2044 0.2193 5.7349 3.01958 -1.23924 -0.0117 -4.1944 -0.0248 51.4242 15.4173 -6.16791 -0.0071 -2.3249 -0.0142 14.4547 4.90055 -0.276176 -0.6113 -8.7231 -2.0637 12.0241 6.76833 -5.49469 0.1927 -3.8059 -0.2383 20.2298 7.811 -0.242886 0.1091 -2.1688 -0.1362 21.8124 8.40433 -0.378098 0.6151 -8.0947 -3.564 -13.6358 2.82534 -6.86715 0.4882 -2.341 -0.6462 21.0316 7.98085 0.327142 0.3574 -1.7166 -0.4742 10.7771 4.08722 0.530829 1.4199 -1.8761 1.4221 14.9861 -7.14842 53.2651 1.1472 -3.4929 2.6336 1.89445 -0.271189 -1.98345 0.8229 -2.3 1.6571 -14.8775 25.9548 12.1768 -9.412 3.9771 -0.7758 -29.3155 -10.0039 -7.685 -0.7531 -40.938 0 0.580286 0.135283 4.3272 7.10543e-015 -40.1986 7.10543e-015 15.0144 13.5421 -0.903657 0 -4.4182 9.239 1.36501 9.12991 -0.634339 9.4119 3.9773 -0.7758 39.9523 -33.804 17.4064 0.7532 -40.9383 -1.77636e-015 0.0316563 24.864 -1.66141 0 -40.1986 0 -12.8925 9.87831 -15.432 7.10543e-015 -4.4182 9.239 0.199947 -1.49381 0.00251054 
-26.4583 -65.9097 85.4097 0 0 -0 3.55271e-015 78.7191 0 9.38215 -65.6113 20.3525 7.10543e-015 8.7983 -4.7612 0.0578183 -7.13203 0.386919 -7.10543e-015 8.0291 0.4195 0.166576 -14.2635 0.790472 0 9.9351 -2.2114 0.166581 -14.2636 0.790478 0 22.3885 -0.4656 0.83607 0.0709808 -4.8972 -0.0001 12.643 3.4389 18.9617 5.78557 -1.0787 2.2603 21.606 7.4023 5.44029 -1.48231 -28.0536 13.5163 -1.1332 -5.0146 46.1451 -51.8268 28.4627 -0.0995 -28.05 -0.2431 65.2155 -77.9927 94.4444 0.0679 -23.3996 -0.1402 -24.7277 -20.7046 -26.7262 0.7932 -9.069 2.5189 -2.16493 11.7165 -1.87834 -0.8272 -3.3923 0.5977 -32.0472 18.8408 3.72684 -0.5649 -2.3158 0.4082 -32.9339 19.2873 3.97329 0.9159 -9.2044 0.2193 -0.0758683 1.12093 1.1968 0.0117 -4.1944 -0.0248 -38.801 22.8806 4.27786 0.0071 -2.3249 -0.0142 -7.47842 4.72089 -0.429709 0.6113 -8.7231 -2.0637 -5.31303 5.72332 4.78393 -0.1927 -3.8059 -0.2383 -12.1493 8.47529 -0.717561 -0.1091 -2.1688 -0.1362 -13.4402 9.37121 -0.678699 -0.6151 -8.0947 -3.5641 14.2092 -0.929291 8.14475 -0.4882 -2.341 -0.6462 -15.7473 10.9031 -1.1333 -0.3575 -1.7167 -0.4742 -7.35085 5.05188 -0.893753 -1.42 -1.8761 1.4223 -11.1351 -17.2672 -46.1638 -1.1471 -3.4929 2.6334 -4.25853 0.206843 0.32544 -0.823 -2.3 1.6571 7.65756 9.66676 -2.7013 -2.2603 21.606 7.4023 -21.7835 -0.00996576 5.48235 -13.5187 -1.1334 -5.0155 -56.9545 -72.9039 -37.3259 0.0994 -28.0499 -0.2431 10.725 -48.2105 4.34563 -0.0679 -23.3996 -0.1402 4.72531 -38.6761 -5.90145 -0.7932 -9.0691 2.5189 20.8132 17.2476 -1.64448 0.8272 -3.3923 0.5977 39.2536 11.9924 -4.93878 0.565 -2.3158 0.4082 40.0954 12.1952 -5.12852 -0.916 -9.2044 0.2193 5.73486 3.01957 -1.23924 -0.0117 -4.1944 -0.0248 51.4242 15.4174 -6.16794 -0.0071 -2.3249 -0.0142 14.4547 4.90055 -0.276182 -0.6113 -8.7231 -2.0637 12.0241 6.76834 -5.49467 0.1927 -3.8059 -0.2383 20.2298 7.81099 -0.242901 0.1091 -2.1688 -0.1362 21.8124 8.40431 -0.378084 0.6151 -8.0947 -3.564 -13.6358 2.82534 -6.86714 0.4882 -2.341 -0.6462 21.0316 7.98085 0.327147 0.3574 -1.7166 -0.4742 10.7771 4.08721 0.53085 1.4199 -1.8761 1.4221 14.9861 -7.1484 53.2651 1.1472 -3.4929 2.6336 1.89444 -0.271163 -1.98348 0.8229 -2.3 1.6571 -14.8775 25.9548 12.1768 -9.412 3.9771 -0.7758 -28.4368 -10.1631 -6.74552 -0.7531 -40.938 0 0.574957 -0.0419964 4.30157 -7.10543e-015 -40.1986 0 14.8546 13.6366 -0.823625 -7.10543e-015 -4.4182 9.239 1.33531 8.94035 -0.618778 9.4119 3.9773 -0.7758 39.6189 -33.9164 18.3058 0.7532 -40.9383 -1.77636e-015 0.0196145 25.7927 -1.6715 2.84217e-014 -40.1986 0 -12.5403 9.57209 -15.454 0 -4.4182 9.239 0.188139 -1.40551 0.00221094 
-26.3524 -65.8754 85.5001 0 0 -0 3.55271e-015 78.7191 0 8.92998 -66.041 19.8821 0 8.7983 -4.7612 0.148571 -7.17842 0.413124 0 8.0291 0.4195 0.354013 -14.3556 0.855401 0 9.9351 -2.2114 0.354015 -14.3556 0.855402 -7.10543e-015 22.3885 -0.4656 0.842675 0.509379 -4.4864 -0.0001 12.643 3.4389 19.7933 6.18199 -0.846418 2.2603 21.606 7.4023 5.72947 -1.49051 -28.2321 13.5163 -1.1332 -5.0146 47.1671 -51.2908 28.7977 -0.0995 -28.05 -0.2431 64.706 -78.697 94.0867 0.0679 -23.3996 -0.1402 -23.0722 -22.2768 -28.635 0.7932 -9.069 2.5189 -1.18018 9.67653 -1.54426 -0.8272 -3.3923 0.5977 -28.4498 16.9725 2.79799 -0.5649 -2.3158 0.4082 -29.1377 17.337 2.96668 0.9159 -9.2044 0.2193 0.965631 0.38994 1.23349 0.0117 -4.1944 -0.0248 -34.4501 20.6985 3.04517 0.0071 -2.3249 -0.0142 -5.87181 3.70268 -0.38931 0.6113 -8.7231 -2.0637 -3.89271 4.59733 4.49187 -0.1927 -3.8059 -0.2383 -10.2123 7.12088 -0.724095 -0.1091 -2.1688 -0.1362 -11.4004 7.95228 -0.725918 -0.6151 -8.0947 -3.5641 14.6566 -0.877507 7.41545 -0.4882 -2.341 -0.6462 -13.5251 9.36712 -1.16888 -0.3575 -1.7167 -0.4742 -5.7962 3.97435 -0.765109 -1.42 -1.8761 1.4223 -10.7767 -17.8271 -42.4518 -1.1471 -3.4929 2.6334 -3.95168 0.130422 0.335313 -0.823 -2.3 1.6571 6.68703 8.50452 -2.2978 -2.2603 21.606 7.4023 -21.5881 -0.13178 6.46621 -13.5187 -1.1334 -5.0155 -55.7116 -72.0201 -36.3398 0.0994 -28.0499 -0.2431 10.0893 -48.4411 3.32351 -0.0679 -23.3996 -0.1402 5.71217 -38.3291 -4.67184 -0.7932 -9.06911 2.5189 20.8132 17.2476 -1.64451 0.8272 -3.3923 0.5977 39.2536 11.9924 -4.93877 0.565 -2.3158 0.4082 40.0954 12.1952 -5.12851 -0.916 -9.20441 0.2193 5.73488 3.01958 -1.23923 -0.0117 -4.1944 -0.0248 51.4242 15.4173 -6.16794 -0.0071 -2.3249 -0.0142 14.4547 4.90058 -0.276167 -0.6113 -8.7231 -2.0637 12.0241 6.76833 -5.49469 0.1927 -3.8059 -0.2383 20.2298 7.811 -0.242839 0.1091 -2.1688 -0.1362 21.8124 8.40431 -0.378087 0.6151 -8.0947 -3.564 -13.6358 2.82536 -6.86712 0.4882 -2.341 -0.6462 21.0316 7.98085 0.327139 0.3574 -1.7166 -0.4742 10.7771 4.0872 0.530863 1.4199 -1.8761 1.4221 14.9862 -7.14839 53.2651 1.1472 -3.4929 2.6336 1.89449 -0.271144 -1.9835 0.8229 -2.3 1.6571 -14.8775 25.9548 12.1768 -9.412 3.9771 -0.7758 -27.1676 -10.4732 -5.39829 -0.7531 -40.938 0 0.592078 -0.0508348 4.26337 -2.13163e-014 -40.1986 0 14.5968 13.6768 -0.675979 7.10543e-015 -4.4182 9.239 1.29404 8.6762 -0.597291 9.4119 3.9773 -0.7758 39.1388 -34.1007 19.5667 0.7532 -40.9383 7.10543e-015 -0.00123151 27.1506 -1.68569 -1.42109e-014 -40.1986 0 -12.0377 9.13832 -15.4624 -7.10543e-015 -4.4182 9.239 0.170873 -1.27647 0.00181115 
